<svg width="48" height="49" viewBox="0 0 48 49" fill="none" xmlns="http://www.w3.org/2000/svg">
<path fill-rule="evenodd" clip-rule="evenodd" d="M7.97342 0.00598145C3.56982 0.00598145 0 3.5758 0 7.9794V40.0326C0 44.4362 3.56982 48.006 7.97342 48.006H40.0266C44.4302 48.006 48 44.4362 48 40.0326V7.9794C48 3.5758 44.4302 0.00598145 40.0266 0.00598145H7.97342ZM34.8049 14.0996C34.8224 14.1068 34.8368 14.12 34.8455 14.1369C38.3752 19.3264 40.1185 25.1805 39.4666 31.9198C39.4653 31.9339 39.461 31.9477 39.454 31.9601C39.447 31.9724 39.4374 31.9832 39.4259 31.9916C37.0635 33.7413 34.4198 35.0749 31.6087 35.9351C31.5888 35.9411 31.5675 35.9408 31.5478 35.9341C31.5281 35.9275 31.5111 35.9148 31.499 35.8979C30.9045 35.0731 30.3712 34.2058 29.9036 33.303C29.8971 33.2906 29.8934 33.2768 29.8927 33.2629C29.8919 33.2488 29.8941 33.2348 29.8991 33.2217C29.9041 33.2086 29.9118 33.1967 29.9218 33.1868C29.9317 33.1769 29.9436 33.1692 29.9567 33.1643C30.8011 32.8468 31.6171 32.4586 32.3961 32.0039C32.4102 31.9954 32.422 31.9836 32.4305 31.9695C32.439 31.9554 32.4439 31.9395 32.4447 31.9231C32.4456 31.9066 32.4424 31.8903 32.4353 31.8753C32.4284 31.8604 32.4179 31.8475 32.4047 31.8377C32.2397 31.7148 32.0779 31.5879 31.9193 31.4571C31.9051 31.4456 31.888 31.4382 31.8699 31.436C31.8518 31.4339 31.8335 31.4368 31.817 31.4447C26.7624 33.7792 21.2245 33.7792 16.1093 31.4447C16.0929 31.4373 16.0747 31.4347 16.0569 31.4371C16.0391 31.4395 16.0222 31.4468 16.0083 31.4583C15.8499 31.5884 15.6885 31.715 15.5241 31.8377C15.511 31.8476 15.5006 31.8607 15.4937 31.8756C15.4868 31.8905 15.4837 31.9069 15.4847 31.9234C15.4857 31.9398 15.4907 31.9557 15.4993 31.9698C15.5079 31.9838 15.5198 31.9955 15.534 32.0039C16.3147 32.4548 17.13 32.8432 17.9721 33.1655C17.9853 33.1703 17.9972 33.1778 18.0072 33.1875C18.0172 33.1973 18.025 33.2091 18.0301 33.2221C18.0352 33.2351 18.0375 33.249 18.0369 33.263C18.0363 33.2769 18.0326 33.2906 18.0263 33.303C17.5664 34.2108 17.0323 35.0792 16.4297 35.8993C16.4172 35.9157 16.4001 35.928 16.3804 35.9344C16.3609 35.9409 16.3398 35.9411 16.32 35.9352C13.5139 35.0721 10.8748 33.7386 8.51535 31.9916C8.50403 31.9827 8.49457 31.9717 8.4876 31.9592C8.48059 31.9467 8.47622 31.9328 8.47468 31.9185C7.93015 26.0892 9.04016 20.1868 13.0922 14.1356C13.1021 14.1196 13.1168 14.107 13.1341 14.0997C15.1603 13.1691 17.299 12.5061 19.4962 12.1272C19.5162 12.1241 19.5366 12.127 19.5548 12.1356C19.573 12.1442 19.5883 12.1582 19.5985 12.1756C19.8964 12.7025 20.165 13.2456 20.403 13.8022C22.7713 13.4426 25.1803 13.4426 27.5486 13.8022C27.7851 13.247 28.0494 12.7041 28.3406 12.1756C28.3504 12.1578 28.3656 12.1435 28.3839 12.1349C28.4022 12.1262 28.4229 12.1235 28.4428 12.1272C30.6399 12.5069 32.7784 13.1698 34.8049 14.0996ZM15.9812 25.2202C15.9812 26.9558 17.2502 28.3691 18.7902 28.3691C20.3548 28.3691 21.5991 26.9558 21.5991 25.2201C21.6238 23.4968 20.3671 22.0712 18.7902 22.0712C17.2256 22.0712 15.9812 23.4845 15.9812 25.2202ZM26.3669 25.2202C26.3669 26.9558 27.6359 28.3691 29.1759 28.3691C30.7528 28.3691 31.9849 26.9558 31.9849 25.2201C32.0095 23.4968 30.7528 22.0712 29.1759 22.0712C27.6113 22.0712 26.3669 23.4845 26.3669 25.2202Z" fill="#5562EB"/>
</svg>
