<svg width="48" height="49" viewBox="0 0 48 49" fill="none" xmlns="http://www.w3.org/2000/svg">
<path d="M8.76451 0.00598145C3.90936 0.00598145 0 3.91534 0 8.77049V39.2415C0 44.0967 3.90936 48.0061 8.76451 48.0061H25.2795V29.241H20.3175V22.485H25.2795V16.713C25.2795 12.1782 28.2113 8.01449 34.965 8.01449C37.6995 8.01449 39.7215 8.27701 39.7215 8.27701L39.5625 14.5861C39.5625 14.5861 37.5003 14.5666 35.25 14.5666C32.8146 14.5666 32.424 15.6887 32.424 17.5516V22.4851H39.756L39.4365 29.2411H32.424V48.0061H39.2355C44.0906 48.0061 48 44.0967 48 39.2416V8.77054C48 3.91539 44.0906 0.00602945 39.2355 0.00602945H8.76446L8.76451 0.00598145Z" fill="#296CB1"/>
</svg>
