<svg width="48" height="48" viewBox="0 0 48 48" fill="none" xmlns="http://www.w3.org/2000/svg">
<path d="M28.9717 24.527C28.9717 21.9329 26.8514 19.822 24.2454 19.822C21.6398 19.822 19.5196 21.933 19.5196 24.527C19.5196 27.1218 21.6398 29.2323 24.2454 29.2323C26.8514 29.2323 28.9717 27.1218 28.9717 24.527ZM35.9932 0.0349121H12.0069C5.39841 0.0349121 0.0219727 5.38797 0.0219727 11.9675V15.2923H17.6578C19.5188 13.9726 21.7914 13.1929 24.2454 13.1929C26.6994 13.1929 28.9725 13.9726 30.8335 15.2923H47.978V11.9675C47.978 5.38792 42.6016 0.0349121 35.9932 0.0349121ZM40.8469 11.3838C40.8469 12.113 40.2478 12.7097 39.5153 12.7097H35.4007C34.6681 12.7097 34.069 12.113 34.069 11.3838V7.2869C34.069 6.55778 34.6681 5.96104 35.4007 5.96104H39.5153C40.2478 5.96104 40.8469 6.55768 40.8469 7.2869V11.3838ZM35.6299 24.527C35.6299 30.7774 30.5226 35.8614 24.2454 35.8614C17.968 35.8614 12.8613 30.7774 12.8613 24.527C12.8613 22.8063 13.2505 21.1745 13.9428 19.7118H0.0219727V36.0443C0.0219727 42.6245 5.39841 47.977 12.0069 47.977H35.9932C42.6016 47.977 47.9781 42.6244 47.9781 36.0443V19.7118H34.5483C35.2406 21.1745 35.6299 22.8063 35.6299 24.527Z" fill="#129C85"/>
</svg>
