<svg width="48" height="49" viewBox="0 0 48 49" fill="none" xmlns="http://www.w3.org/2000/svg">
<path d="M40 15.0685C38.8333 15.5893 37.5729 15.9435 36.2187 16.131C37.6354 15.2976 38.6042 14.0789 39.125 12.4747C37.7708 13.2664 36.375 13.7976 34.9375 14.0685C33.6667 12.6934 32.0729 12.006 30.1563 12.006C28.3437 12.006 26.7968 12.6466 25.5157 13.9279C24.2344 15.2091 23.5938 16.756 23.5938 18.5685C23.5938 19.1726 23.6458 19.6727 23.75 20.0685C21.0625 19.9226 18.5417 19.2455 16.1875 18.0372C13.8334 16.8289 11.8333 15.2143 10.1875 13.1935C9.58331 14.2352 9.28125 15.3394 9.28125 16.506C9.28125 18.881 10.2292 20.7039 12.125 21.9747C11.1458 21.9539 10.1042 21.683 9 21.1623V21.2247C9 22.7872 9.52087 24.1778 10.5625 25.3966C11.6042 26.6153 12.8854 27.3706 14.4063 27.6622C13.8021 27.8289 13.2709 27.9123 12.8125 27.9123C12.5417 27.9123 12.1354 27.8705 11.5938 27.7872C12.0312 29.0997 12.8073 30.1831 13.9219 31.0372C15.0365 31.8914 16.3021 32.3289 17.7188 32.3497C15.3021 34.2247 12.5833 35.1622 9.5625 35.1622C9.02083 35.1622 8.5 35.131 8 35.0685C11.0833 37.0268 14.4375 38.006 18.0625 38.006C20.3959 38.006 22.5833 37.6362 24.625 36.8966C26.6666 36.157 28.4167 35.1675 29.875 33.9278C31.3333 32.6883 32.5885 31.2612 33.6406 29.6466C34.6927 28.032 35.474 26.3445 35.9843 24.5841C36.4948 22.8237 36.75 21.0685 36.75 19.3185C36.75 18.9435 36.7396 18.6622 36.7188 18.4747C38.0313 17.5372 39.125 16.4018 40 15.0685ZM48 9.00598V39.006C48 41.4851 47.1198 43.605 45.3593 45.3653C43.599 47.1258 41.4791 48.006 39 48.006H9C6.52084 48.006 4.40104 47.1258 2.64063 45.3653C0.880209 43.605 0 41.4851 0 39.006V9.00598C0 6.52682 0.880209 4.40702 2.64063 2.64661C4.40104 0.88619 6.52084 0.00598145 9 0.00598145H39C41.4791 0.00598145 43.599 0.88619 45.3593 2.64661C47.1198 4.40702 48 6.52682 48 9.00598Z" fill="#1C99E5"/>
</svg>
